<?xml version="1.0" encoding="utf-8"?>
<!-- Generator: Adobe Illustrator 22.1.0, SVG Export Plug-In . SVG Version: 6.00 Build 0)  -->
<svg version="1.1" id="Laag_1" xmlns="http://www.w3.org/2000/svg" xmlns:xlink="http://www.w3.org/1999/xlink" x="0px" y="0px"
	 viewBox="0 0 500 500" style="enable-background:new 0 0 500 500;" xml:space="preserve">
<style type="text/css">
	.st0{fill:#22B573;}
	.st1{fill:#0071BC;}
	.st2{fill:#FF2E3F;}
</style>
<g>
	<path class="st0" d="M257,52c26.7,0,52.7,5.2,77.1,15.6c23.6,10,44.8,24.2,62.9,42.4c18.2,18.2,32.5,39.4,42.4,62.9
		c10.3,24.4,15.6,50.3,15.6,77.1s-5.2,52.7-15.6,77.1c-10,23.6-24.2,44.8-42.4,62.9c-18.2,18.2-39.4,32.5-62.9,42.4
		C309.7,442.8,283.7,448,257,448s-52.7-5.2-77.1-15.6c-23.6-10-44.8-24.2-62.9-42.4c-18.2-18.2-32.5-39.4-42.4-62.9
		C64.2,302.7,59,276.7,59,250s5.2-52.7,15.6-77.1c10-23.6,24.2-44.8,42.4-62.9c18.2-18.2,39.4-32.5,62.9-42.4
		C204.3,57.2,230.3,52,257,52 M257,43C142.7,43,50,135.7,50,250s92.7,207,207,207s207-92.7,207-207S371.3,43,257,43L257,43z"/>
</g>
<g>
	<rect x="250" y="118" class="st1" width="5" height="134"/>
</g>
<g>
	<rect x="250" y="247.5" class="st2" width="134.5" height="5"/>
</g>
</svg>
