<?xml version="1.0" encoding="utf-8"?>
<!-- Generator: Adobe Illustrator 22.1.0, SVG Export Plug-In . SVG Version: 6.00 Build 0)  -->
<svg version="1.1" id="Laag_1" xmlns="http://www.w3.org/2000/svg" xmlns:xlink="http://www.w3.org/1999/xlink" x="0px" y="0px"
	 viewBox="0 0 500 500" style="enable-background:new 0 0 500 500;" xml:space="preserve">
<style type="text/css">
	.st0{opacity:0.33;fill:#73D0EA;enable-background:new    ;}
	.st1{fill:#29ABE2;}
	.st2{fill:#62D5F4;}
	.st3{fill:#FFFFFF;}
</style>
<path class="st0" d="M137,376l254-133c0,0,69,55,46-49c0,0,63,6,47-51s-82-16-82-11l-19-2c0,0-58-53-59,25L75,279c0,0-9,13,3,44
	l-63,37c0,0-6,20,12,16l62-25C89,351,113,389,137,376z"/>
<path class="st1" d="M75,279c0,0,26-28,68,65c0,0,10.6,31.1-13.7,34.5c0,0-30.3,8.5-51.3-55.5C78,323,66,290,75,279z"/>
<path class="st2" d="M78,323l-64,37c0,0-6,20,13,16s81-33,81-33S107,306,78,323z"/>
<path class="st3" d="M421,148c0,0,4,16,20,15s28-4,28-4S454,135,421,148z"/>
</svg>
